<?xml version="1.0" standalone="no"?>
<!DOCTYPE svg PUBLIC "-//W3C//DTD SVG 20010904//EN"
 "http://www.w3.org/TR/2001/REC-SVG-20010904/DTD/svg10.dtd">
<svg version="1.0" xmlns="http://www.w3.org/2000/svg"
 width="1080.000000pt" height="1080.000000pt" viewBox="0 0 1080.000000 1080.000000"
 preserveAspectRatio="xMidYMid meet">
<metadata>
Created by potrace 1.14, written by Peter Selinger 2001-2017
</metadata>
<g transform="translate(0.000000,1080.000000) scale(0.100000,-0.100000)"
fill="#000000" stroke="none">
<path d="M4371 10188 c0 -7 44 -34 97 -60 77 -38 116 -65 190 -134 107 -99
175 -194 243 -340 103 -217 125 -343 99 -551 -17 -138 -99 -387 -190 -579
l-42 -86 12 -107 c6 -58 16 -149 23 -201 7 -61 10 -206 8 -410 -2 -219 0 -312
7 -305 6 6 26 46 45 90 40 93 147 312 212 435 83 157 165 350 190 448 57 224
67 638 19 852 -18 82 -126 352 -168 422 -116 193 -270 321 -551 458 -149 73
-195 89 -194 68z"/>
<path d="M7530 9863 c-63 -11 -181 -48 -276 -88 -166 -70 -255 -128 -377 -245
-167 -160 -243 -268 -328 -467 -90 -211 -107 -285 -133 -573 -20 -229 -15
-358 18 -495 30 -122 72 -256 92 -296 30 -59 154 -515 154 -566 0 -37 23 -27
69 30 81 99 111 185 111 322 0 63 -5 83 -35 146 -57 119 -57 114 34 298 l80
162 -23 62 c-66 174 -116 445 -116 621 0 236 31 385 111 536 111 208 378 428
629 516 94 33 88 54 -10 37z"/>
<path d="M4586 8775 c-119 -321 -181 -564 -165 -649 27 -139 17 -611 -17 -775
-21 -99 -34 -129 -76 -174 -45 -47 -91 -51 -130 -9 -37 39 -45 58 -64 158 -15
77 -17 142 -15 474 1 211 0 382 -3 380 -3 -3 -28 -82 -56 -175 -65 -214 -70
-286 -45 -618 16 -219 17 -243 2 -319 -58 -298 -58 -601 -1 -859 l16 -75 102
23 c129 29 310 61 455 79 63 7 116 16 118 18 2 2 -27 12 -64 21 -37 10 -98 32
-135 48 l-67 29 -70 -60 c-126 -109 -152 -107 -41 3 39 38 70 75 70 82 0 7
-13 22 -29 34 -41 30 -85 94 -115 168 -31 76 -86 268 -86 300 0 45 20 8 54
-103 20 -62 54 -149 76 -193 38 -77 106 -158 132 -158 10 0 15 51 20 205 3
113 11 313 17 445 6 132 13 314 16 405 3 91 7 197 10 235 3 39 7 140 10 225
12 324 27 585 35 594 5 4 14 5 20 1 13 -8 11 -106 -10 -485 -5 -96 -14 -272
-20 -390 -5 -118 -15 -312 -20 -430 -6 -118 -18 -340 -26 -493 -9 -153 -14
-281 -10 -284 4 -4 30 16 59 43 162 156 437 367 437 336 0 -8 -204 -196 -280
-258 -19 -16 -43 -36 -52 -44 -9 -8 -46 -40 -82 -70 -36 -30 -65 -60 -65 -66
-1 -20 22 -32 140 -72 63 -22 126 -44 141 -50 17 -7 107 -9 262 -5 227 6 237
7 261 28 13 13 78 56 144 96 67 41 121 76 121 79 0 7 -97 88 -296 248 -160
129 -222 187 -210 199 4 4 13 3 20 -2 99 -72 363 -277 430 -334 58 -49 90 -71
97 -64 5 5 14 79 20 164 5 85 14 197 19 249 6 52 17 167 25 255 18 200 34 356
40 373 7 18 35 14 35 -5 0 -10 -5 -65 -10 -123 -14 -141 -38 -400 -55 -591 -8
-86 -19 -176 -24 -200 -9 -40 -15 -102 -12 -122 1 -4 85 35 189 87 218 109
406 196 424 196 32 0 -264 -174 -408 -240 -79 -36 -172 -80 -183 -88 -3 -1 15
-19 40 -39 72 -61 159 -146 155 -150 -3 -3 -46 25 -98 62 -145 105 -141 104
-224 62 -97 -49 -231 -127 -219 -127 439 -9 812 -59 1155 -154 l125 -35 52 24
c29 13 74 39 100 57 26 18 51 36 56 39 11 8 14 4 -160 192 -142 153 -159 174
-149 184 3 4 69 -56 146 -132 77 -76 142 -136 145 -133 3 3 15 59 25 124 11
66 35 207 54 314 51 290 102 587 146 845 113 654 113 656 141 628 7 -7 0 -67
-25 -209 -20 -110 -40 -230 -46 -269 -6 -38 -19 -115 -30 -170 -18 -93 -47
-258 -100 -565 -11 -69 -30 -177 -41 -240 -11 -63 -29 -167 -40 -230 -10 -63
-26 -150 -35 -192 -14 -63 -14 -80 -4 -93 7 -8 16 -15 21 -15 11 0 121 95 232
200 56 53 113 120 159 189 l71 106 2 128 c1 83 6 132 14 140 21 21 28 -10 36
-157 8 -175 -8 -399 -40 -566 -55 -283 -65 -336 -65 -357 0 -28 -16 -30 -30
-4 -10 20 -10 27 30 261 29 179 51 367 48 414 l-3 41 -39 -60 c-65 -99 -101
-139 -229 -251 -67 -59 -128 -113 -135 -119 -11 -10 -2 -27 52 -93 98 -123 98
-138 -1 -34 l-88 94 -109 -56 c-103 -52 -108 -56 -83 -65 14 -6 70 -29 124
-52 208 -88 285 -136 395 -242 l58 -55 54 112 c182 375 224 803 121 1234 -14
57 -25 119 -25 138 0 19 14 101 31 182 39 181 46 242 44 357 -2 106 -25 286
-36 280 -9 -6 -32 -133 -59 -325 -11 -80 -25 -164 -30 -188 -6 -23 -14 -82
-19 -130 -13 -123 -81 -327 -128 -382 -45 -53 -69 -50 -103 10 -24 43 -25 52
-25 210 0 232 42 412 117 501 l39 47 10 158 c8 117 8 245 -2 482 -7 177 -14
320 -16 318 -2 -2 -26 -66 -54 -142 -72 -201 -241 -605 -293 -704 -25 -47 -46
-95 -46 -108 0 -12 18 -60 40 -106 47 -98 50 -141 21 -283 -29 -140 -111 -270
-214 -339 -29 -19 -77 -55 -107 -79 -118 -97 -195 -114 -326 -74 -115 36 -179
74 -269 162 -74 72 -87 91 -109 153 -14 39 -26 85 -26 101 0 51 39 186 61 209
l20 22 -25 78 c-67 212 -143 409 -156 409 -9 0 -60 -90 -132 -235 l-117 -235
29 -58 c54 -108 48 -201 -20 -307 -44 -68 -110 -114 -217 -150 -175 -58 -296
-33 -425 88 -38 36 -74 75 -80 86 -33 61 -57 296 -59 578 -1 108 -5 263 -10
345 -5 81 -11 245 -14 363 -7 276 -14 416 -23 460 -7 32 -13 19 -86 -175z
m-475 -1612 c14 -36 13 -193 -2 -365 -7 -82 -9 -197 -4 -299 6 -143 4 -167 -9
-178 -13 -11 -20 -11 -39 2 -43 28 -46 139 -18 568 10 152 21 281 25 287 13
21 36 13 47 -15z"/>
<path d="M4304 7753 c-34 -54 -78 -129 -99 -167 -35 -65 -37 -73 -32 -135 7
-99 36 -208 62 -238 l22 -27 25 26 c28 31 53 106 68 203 10 71 26 435 19 435
-2 0 -31 -44 -65 -97z"/>
<path d="M7149 7478 c-30 -128 -34 -157 -33 -278 1 -191 24 -237 69 -137 29
62 95 314 95 360 0 27 -64 164 -89 190 -4 4 -23 -57 -42 -135z"/>
<path d="M4910 6214 c-217 -12 -626 -71 -833 -120 l-107 -26 -69 -96 c-140
-195 -308 -507 -396 -732 -41 -103 -87 -276 -110 -409 -19 -109 -20 -401 -1
-597 44 -459 46 -725 7 -954 -23 -139 -152 -683 -165 -697 -1 -2 -52 -10 -113
-18 -130 -18 -356 -72 -463 -111 -113 -40 -294 -134 -411 -212 -256 -172 -388
-366 -531 -782 -79 -231 -147 -532 -230 -1010 -15 -91 -43 -202 -72 -291 -14
-42 -26 -93 -28 -115 l-3 -39 3948 -3 c2802 -1 3947 1 3947 9 0 33 -39 211
-87 394 -90 342 -164 525 -405 995 -237 463 -266 510 -433 695 -143 158 -325
286 -590 416 -149 73 -318 131 -580 199 -226 59 -221 56 -228 121 -26 217 16
470 139 829 82 241 149 473 175 613 27 142 45 749 28 912 -18 174 -56 331
-102 425 -35 73 -167 214 -250 267 -51 33 -243 117 -337 148 -30 9 -62 21 -71
25 -62 31 -432 111 -653 141 -127 18 -210 22 -531 24 -209 1 -409 1 -445 -1z
m1415 -489 c109 -28 133 -63 189 -271 48 -180 108 -312 196 -433 l53 -72 -6
-232 c-10 -431 -73 -663 -303 -1117 -60 -118 -132 -263 -161 -323 -29 -59 -72
-136 -95 -171 -24 -35 -48 -71 -53 -81 -10 -16 -15 -15 -65 15 -138 81 -362
164 -486 180 -237 30 -621 -67 -817 -206 -26 -19 -51 -34 -56 -34 -14 0 -89
89 -119 140 -15 25 -36 59 -48 77 -18 27 -22 51 -28 195 -3 89 -11 247 -17
351 -17 276 7 549 66 750 l17 58 54 -55 c70 -72 126 -90 279 -90 125 0 190 17
246 63 l34 29 -25 47 c-47 89 -161 173 -272 201 -70 18 -211 15 -230 -4 -7 -7
-16 -12 -21 -12 -10 0 -3 25 26 99 l22 53 40 -5 c73 -10 249 -55 320 -82 104
-39 105 -39 105 -21 0 9 -21 31 -47 51 -54 39 -249 137 -311 157 -23 7 -42 16
-42 20 0 3 22 39 49 80 103 152 243 294 359 364 82 50 169 74 312 84 171 13
285 46 455 129 77 38 149 71 160 74 45 11 164 6 220 -8z m-1708 -2705 l72 -76
-74 -74 -75 -74 0 45 c0 25 -3 94 -7 154 -4 64 -2 106 3 104 5 -2 42 -38 81
-79z m1687 53 c34 -66 118 -123 280 -194 63 -28 123 -61 143 -80 87 -85 81
-295 -12 -411 -51 -63 -87 -100 -92 -94 -2 2 -11 37 -20 78 -38 185 -230 473
-382 574 -23 15 -40 30 -39 33 8 17 94 121 100 121 4 0 14 -12 22 -27z m-2044
-398 c1 -121 -1 -290 -5 -375 -7 -133 -5 -173 13 -286 12 -72 24 -138 28 -148
9 -24 -43 -21 -157 8 -168 42 -248 79 -305 138 -98 103 -88 69 -94 357 -3 141
-9 264 -13 273 -8 15 10 23 125 59 159 50 264 102 338 168 35 31 57 45 62 37
3 -6 7 -110 8 -231z m1681 -206 c126 -25 181 -48 206 -85 16 -25 18 -50 18
-209 -1 -160 -4 -189 -25 -258 -34 -112 -46 -119 -153 -79 -45 17 -98 35 -118
41 -65 21 -76 42 -83 166 -3 61 -11 178 -18 262 -16 204 -20 201 173 162z
m-1307 0 c14 -7 28 -19 31 -28 7 -18 26 -285 27 -374 l0 -57 56 51 c50 45 145
109 165 109 4 0 7 -10 7 -22 0 -30 -76 -282 -97 -322 -10 -17 -17 -57 -18 -91
-3 -109 -53 -187 -270 -415 -103 -108 -247 -270 -342 -386 -33 -40 -117 -172
-191 -299 -10 -16 25 13 183 155 83 74 184 164 225 199 41 35 140 130 220 210
191 193 402 358 561 440 109 56 159 73 159 54 0 -5 -7 -32 -14 -61 -16 -58
-53 -126 -95 -175 -16 -18 -37 -50 -49 -72 -20 -40 -122 -161 -217 -260 -27
-27 -79 -84 -116 -126 -37 -41 -130 -133 -208 -204 -139 -125 -252 -251 -439
-484 -86 -107 -150 -207 -139 -217 3 -3 34 35 71 85 131 178 195 251 615 691
271 284 406 413 463 445 80 44 228 89 228 70 0 -20 -127 -239 -169 -292 -45
-58 -33 -27 22 53 62 91 133 221 126 229 -7 7 -132 -36 -186 -63 -69 -36 -159
-127 -193 -196 -35 -71 -34 -104 7 -136 44 -34 90 -24 149 32 l31 29 6 -23 c9
-32 -31 -112 -88 -178 -27 -30 -65 -79 -87 -108 -21 -29 -80 -94 -131 -145
-136 -137 -252 -274 -339 -399 -43 -61 -78 -115 -78 -119 0 -5 -195 -8 -451
-7 l-451 3 -18 70 c-10 39 -32 106 -50 150 -48 120 -42 159 50 322 40 70 91
155 113 188 58 86 190 256 222 285 15 14 60 63 99 110 39 47 151 166 249 264
97 99 177 185 177 191 0 6 -14 49 -31 95 -27 75 -54 202 -75 360 -8 62 -7 205
2 263 5 30 15 43 52 69 25 17 59 35 76 39 48 11 123 10 150 -2z m561 -328 c45
-7 43 -8 -30 -7 -44 0 -91 -3 -104 -8 -22 -8 -19 -11 37 -41 33 -17 109 -65
169 -106 115 -78 209 -118 281 -119 59 0 101 23 109 61 7 38 1 40 233 -76 274
-137 426 -231 507 -311 60 -60 156 -210 213 -331 27 -56 102 -182 167 -280 88
-132 125 -196 142 -249 30 -95 133 -261 319 -515 41 -55 72 -102 70 -105 -3
-2 -378 0 -834 5 l-829 8 -100 31 c-55 17 -132 42 -172 56 -76 26 -164 41
-303 51 -47 3 -123 13 -170 21 -47 8 -105 15 -130 15 -25 0 -57 2 -72 5 l-28
6 44 56 c24 31 64 78 88 105 l43 47 260 2 c169 0 283 -3 325 -11 36 -7 128
-39 205 -71 222 -92 406 -138 445 -110 19 14 19 14 -165 128 -77 49 -176 114
-220 146 -151 109 -289 162 -486 187 l-89 12 31 41 c62 82 101 145 114 183
l13 38 69 3 c90 4 174 -11 264 -49 41 -17 98 -39 127 -49 29 -10 74 -31 100
-45 26 -15 70 -35 97 -45 28 -10 110 -43 184 -73 117 -48 140 -62 190 -111 31
-31 61 -56 66 -56 5 0 -21 31 -58 68 l-68 69 3 119 3 119 -59 130 c-60 134
-89 226 -79 252 4 9 -12 32 -41 61 -26 26 -61 67 -79 92 -41 56 -167 141 -357
240 -78 40 -159 89 -179 108 -20 19 -53 43 -73 53 -20 10 -86 52 -145 91 -60
40 -134 86 -166 102 -31 15 -57 32 -57 36 0 10 65 28 100 28 14 0 48 -3 75 -7z
m82 -17 c-3 -3 -12 -4 -19 -1 -8 3 -5 6 6 6 11 1 17 -2 13 -5z m223 -59 c19
-7 28 -14 20 -14 -8 0 -28 6 -45 14 -39 17 -21 18 25 0z"/>
<path d="M6389 4869 c-184 -25 -531 -206 -619 -323 -101 -133 -134 -285 -134
-616 0 -137 4 -234 10 -249 8 -18 10 25 6 160 -6 276 23 465 96 603 54 104
127 172 236 219 115 49 208 74 333 87 113 12 183 1 275 -45 l47 -24 6 44 c10
65 -1 97 -43 124 -43 29 -109 35 -213 20z"/>
<path d="M6061 4624 c-105 -28 -262 -128 -274 -174 -8 -33 29 -68 121 -111
131 -63 253 -66 406 -9 93 35 209 165 190 213 -6 16 -117 70 -179 86 -56 15
-200 12 -264 -5z"/>
<path d="M5074 4316 c-144 -101 -339 -123 -482 -54 -49 23 -60 20 -35 -11 24
-28 112 -58 198 -66 142 -14 336 65 386 158 14 26 0 20 -67 -27z"/>
<path d="M5183 3675 c-13 -9 -28 -33 -34 -54 -9 -31 -8 -43 5 -69 20 -39 57
-65 88 -60 31 4 30 32 -2 36 -36 5 -60 31 -60 64 0 27 24 61 51 70 15 5 3 28
-14 28 -7 0 -22 -7 -34 -15z"/>
<path d="M5680 3660 c0 -5 11 -20 25 -34 17 -17 25 -36 25 -59 0 -40 -15 -57
-51 -57 -35 0 -46 -16 -20 -29 32 -17 66 -13 88 12 30 32 36 61 20 100 -20 46
-87 98 -87 67z"/>
<path d="M5300 3531 c33 -33 76 -65 94 -71 47 -15 104 1 141 41 17 17 47 40
68 51 22 10 37 22 34 25 -13 13 -72 -12 -113 -48 -78 -67 -118 -65 -199 11
-76 73 -99 64 -25 -9z"/>
<path d="M5392 3328 c-7 -7 -12 -21 -12 -33 0 -47 62 -63 81 -21 22 47 -33 90
-69 54z"/>
<path d="M4855 2123 c-119 -77 -240 -215 -307 -350 -38 -76 -40 -84 -28 -112
9 -23 22 -34 53 -42 22 -6 51 -8 66 -4 60 15 142 134 197 285 32 89 75 250 65
249 -3 0 -24 -12 -46 -26z"/>
<path d="M5265 1657 c-28 -12 -75 -36 -105 -52 -30 -17 -67 -37 -82 -44 -42
-22 -137 -105 -164 -144 -16 -23 -24 -50 -24 -76 0 -35 4 -43 31 -57 48 -24
80 -12 184 71 119 95 201 204 220 293 8 38 6 38 -60 9z"/>
<path d="M4026 1126 c3 -8 17 -23 32 -32 l26 -17 -24 31 c-26 33 -43 42 -34
18z"/>
<path d="M4170 705 c0 -11 4 -25 8 -31 11 -17 75 -54 92 -54 8 1 -2 10 -23 21
-21 11 -47 34 -57 52 -16 25 -20 28 -20 12z"/>
<path d="M5547 868 c-33 -44 -50 -78 -43 -86 3 -3 6 -1 6 5 0 6 16 31 36 57
20 26 34 50 31 52 -3 3 -16 -10 -30 -28z"/>
<path d="M5331 334 c-15 -61 -8 -68 9 -9 7 25 10 48 8 51 -3 2 -11 -16 -17
-42z"/>
</g>
</svg>
